<svg width="77" height="207" viewBox="0 0 77 207" fill="none" xmlns="http://www.w3.org/2000/svg">
<path d="M55.5314 206.032C59.5896 206.083 64.2178 205.915 66.8171 203.131C67.4207 202.477 67.8902 201.673 67.7896 200.834C67.5884 199.023 65.1234 198.252 63.1111 197.95C51.3559 196.206 39.3323 196.877 27.4429 197.581C20.0142 198.017 12.5015 198.453 5.42492 200.482C1.73569 201.538 -1.19889 204.289 3.46295 205.496C7.97388 206.67 14.8827 205.546 19.6284 205.597C31.5849 205.731 43.5582 205.882 55.5314 206.032Z" fill="url(#paint0_linear_1_774)"/>
<path d="M55.5363 206.032C59.5944 206.083 64.2227 205.915 66.8219 203.131C67.4256 202.477 67.8951 201.673 67.7945 200.834C67.5933 199.023 65.1283 198.252 63.116 197.95C51.3608 196.206 39.3372 196.877 27.4478 197.581C20.019 198.017 12.5064 198.453 5.42981 200.482C1.74058 201.538 -1.19401 204.289 3.46784 205.496C7.97876 206.67 14.8876 205.546 19.6333 205.597C31.5898 205.731 43.563 205.882 55.5363 206.032Z" fill="url(#paint1_linear_1_774)"/>
<path d="M19.4898 197.779C20.4792 197.779 21.4854 197.796 22.4748 197.796C22.6425 197.796 22.8268 197.796 22.961 197.678C23.0783 197.561 23.1119 197.393 23.1454 197.225C23.2796 196.186 23.4137 195.129 23.5646 194.09C23.5479 194.224 20.2276 193.637 19.8251 193.972C19.037 194.576 19.4731 196.907 19.4898 197.779Z" fill="#F0E5D4"/>
<path d="M40.6025 197.765C41.5415 197.782 42.4807 197.782 43.4366 197.765C43.7384 197.765 44.0738 197.748 44.2918 197.53C44.5098 197.312 44.5264 196.96 44.5264 196.658C44.5264 195.82 44.5264 194.982 44.5264 194.143C44.5264 194.059 44.5266 193.959 44.4763 193.875C44.4092 193.757 44.2581 193.741 44.124 193.724C43.3694 193.64 41.1223 193.388 40.6193 194.076C40.4013 194.361 40.7366 197.782 40.6025 197.765Z" fill="#F0E5D4"/>
<path d="M42.8485 52.6571C45.8838 48.9343 48.6842 53.0428 49.7742 56.6314C54.1678 71.1033 55.5596 86.6316 56.9179 101.992C57.1359 104.457 57.354 106.906 57.572 109.371C58.3601 118.225 59.1315 127.096 59.9197 135.95C59.97 136.47 51.1829 138.7 50.4282 138.935C45.8335 140.293 41.071 140.377 36.3924 140.058C30.5399 139.656 24.7211 138.633 18.8351 138.7C16.3365 138.734 13.7875 138.952 11.356 138.247C12.3621 133.082 12.4628 127.766 12.6976 122.501C13.2342 109.79 14.4751 97.1123 15.6992 84.4516C16.3868 77.3414 16.806 70.0803 17.678 63.0373C18.1643 59.1803 19.7239 52.4391 23.061 50.7287C26.616 48.9176 28.3097 53.6465 31.1772 54.8539C34.4472 56.2457 38.4719 56.4637 41.4903 54.0322C42.0605 53.5962 42.4628 53.1099 42.8485 52.6571Z" fill="#333333"/>
<path d="M14.7509 13.0341C14.9353 12.3465 15.0024 11.6087 14.9521 10.9044C14.9018 10.2001 14.6167 9.3784 13.9124 9.24424C13.2249 9.11009 12.6547 9.76406 12.3193 10.3678C10.743 13.1347 10.3406 16.3879 9.97168 19.5405C11.0617 19.8759 12.202 20.0604 13.3255 20.0436C13.3255 18.7189 13.6441 17.4108 14.2646 16.237C14.9354 14.9961 15.9582 13.8055 15.8576 12.3969C15.6731 12.3801 15.4887 12.3633 15.2875 12.3465C15.103 12.5645 14.9353 12.7993 14.7509 13.0341Z" fill="#E8DBCE"/>
<path d="M36.6644 59.4821C35.4067 55.1221 25.6806 53.311 22.0249 51.567C18.0674 49.6721 14.4955 46.9555 11.6112 43.6519C10.974 42.9141 10.3535 42.126 10.0181 41.2037C9.11256 38.705 13.9421 19.6719 13.5229 19.5378L9.34739 18.2969C7.36862 23.8643 5.33948 29.4316 3.41102 35.0158C1.91856 39.3255 -0.663907 43.8197 0.157785 48.5486C0.6944 51.5335 3.91411 53.5458 6.0438 55.709C8.40826 58.1238 13.9085 63.6073 16.9102 66.6761L25.8817 75.7483C27.8773 80.2089 32.4889 68.3027 33.6962 66.7767C35.0881 64.9657 37.3687 61.9472 36.6644 59.4821Z" fill="#333333"/>
<path d="M20.1891 153.68C20.7928 141.22 19.5182 128.492 19.6356 115.966C19.2331 111.623 19.8871 107.195 21.5305 103.104C21.6311 102.852 21.7485 102.584 21.9497 102.399C22.587 101.796 23.6602 102.114 24.4819 102.433C32.4808 105.502 41.9387 104.781 49.2333 100.438C50.6754 102.483 51.0946 104.999 51.4467 107.413C52.0169 111.337 52.6542 115.245 52.8051 119.185V119.202C52.8387 120.041 52.8555 120.896 52.8387 121.734C52.7381 126.648 51.7152 131.477 50.927 136.307C50.4072 139.459 49.9544 142.646 49.9041 145.832C49.8706 148.448 49.4682 149.404 49.116 153.11C48.4955 159.549 48.0931 166.575 47.4391 173.015C46.7348 179.907 46.0472 186.816 45.477 193.725C45.4602 193.993 45.4266 194.278 45.4099 194.546C45.0409 194.647 39.3394 195.871 39.3394 194.479C38.8866 181.064 38.4172 167.649 37.9644 154.233C37.78 148.582 37.5619 142.864 36.0359 137.481C35.3987 137.548 34.7782 137.598 34.141 137.665C30.6698 155.407 29.3449 173.082 25.8737 190.824C25.5718 192.383 25.203 194.077 24.0962 195.083C22.9895 196.089 18.7636 195.905 18.4282 194.345C19.4008 180.812 19.5183 167.246 20.1891 153.68Z" fill="#363F4C"/>
<path d="M39.8636 196.435C41.8926 196.268 43.9553 196.352 45.9508 196.687C47.4936 197.844 49.204 198.8 50.9983 199.521C51.5182 199.739 52.0716 199.94 52.4573 200.343C52.843 200.745 52.9939 201.433 52.6417 201.869C52.3231 202.238 51.7696 202.288 51.2833 202.288C47.527 202.321 43.7708 202.003 40.0816 201.332C39.8636 201.298 39.6288 201.248 39.4611 201.08C39.327 200.946 39.2766 200.779 39.2263 200.594C38.8406 199.219 39.0754 197.66 39.8636 196.435Z" fill="#736357"/>
<path d="M24.2183 196.543C22.1725 196.509 20.1435 196.71 18.148 197.163C16.6723 198.404 15.0289 199.46 13.2849 200.299C12.7818 200.534 12.2452 200.768 11.893 201.204C11.5408 201.64 11.4235 202.328 11.8092 202.747C12.1446 203.099 12.698 203.116 13.1843 203.083C16.9406 202.898 20.6634 202.345 24.3191 201.456C24.5371 201.406 24.7718 201.339 24.9227 201.171C25.0401 201.037 25.0904 200.852 25.1239 200.685C25.409 199.259 25.0736 197.716 24.2183 196.543Z" fill="#736357"/>
<path d="M34.8661 50.6339C36.5598 50.6171 38.1192 49.6445 39.293 48.4204C43.6698 43.8927 43.5357 36.7825 43.1164 30.4941C43.0661 29.8233 43.0158 29.119 42.6301 28.5656C42.0432 27.7104 40.903 27.4924 39.8801 27.375C35.5033 27.375 31.1935 27.5762 26.7832 27.7942C26.4143 27.811 26.0118 27.8445 25.7268 28.0625C25.4081 28.3141 25.3075 28.7165 25.2404 29.1022C24.9385 30.9133 25.5255 32.8082 25.492 34.6528C25.4584 36.5478 25.5422 38.4595 25.8776 40.3208C26.5149 43.9598 28.1918 47.3471 31.3444 49.4097C32.4009 50.114 33.6084 50.6339 34.8661 50.6339Z" fill="#F0E5D4"/>
<path d="M53.1958 107.111C53.3132 107.095 53.3636 107.044 53.2965 106.927C52.8437 106.239 52.1226 104.998 51.3848 103.523C50.8314 96.2448 49.9594 88.9502 48.467 81.773C46.6056 72.9356 42.6144 64.7354 40.2332 56.0322C39.5289 53.4833 38.3549 53.4665 35.0849 53.6007C33.7769 53.5336 33.2237 53.7013 33.1231 53.718C31.0102 53.6007 31.7313 53.9696 30.004 53.4497C28.0923 52.8628 26.0967 54.372 26.0967 55.9651C26.0967 57.6588 26.0632 59.3525 26.0129 61.063C22.6759 74.8976 20.6635 88.9502 20.043 103.07C20.043 103.087 20.043 103.103 20.043 103.12C19.8585 103.841 19.6741 104.562 19.4729 105.3C19.0537 106.39 18.6009 107.631 18.5506 108.604C18.5171 108.704 18.5003 108.788 18.4668 108.889C18.1146 110.13 18.9363 111.203 20.2946 111.622C30.7418 114.859 41.9269 114.339 51.9381 110.297C52.0723 110.247 52.2064 110.18 52.307 110.113C52.3908 110.079 52.4747 110.046 52.5753 110.012C52.7263 109.912 52.894 109.811 53.0449 109.711C53.3971 109.409 53.6151 109.006 53.6822 108.587C53.766 108.117 53.5983 107.531 53.1958 107.111Z" fill="#1A1A1A"/>
<path d="M30.9781 9.10844C29.7707 9.10844 28.5801 9.10844 27.3727 8.95752C26.8696 8.89044 26.8194 9.61154 27.289 9.71216C28.4628 9.98047 29.6366 10.2655 30.8272 10.4332C31.6992 10.5506 31.8166 9.10844 30.9781 9.10844Z" fill="#666666"/>
<path d="M23.731 0.389962C23.5801 0.893039 23.58 1.42963 23.5632 1.9327C23.5464 2.48609 23.4291 3.10658 23.58 3.6432C23.6471 3.91151 24.0495 4.1127 24.234 3.81085C24.5023 3.34131 24.5526 2.78795 24.67 2.26811C24.7874 1.69795 24.9551 1.11102 24.9216 0.524094C24.8881 -0.0963674 23.8987 -0.196961 23.731 0.389962Z" fill="#666666"/>
<path d="M29.1178 2.85517C28.5477 3.17379 28.0613 3.60977 27.5582 4.04577C27.1222 4.43146 26.6527 4.78362 26.3844 5.30346C26.2503 5.53823 26.5185 5.84009 26.7701 5.78979C27.2732 5.68917 27.6925 5.38728 28.1117 5.11898C28.6819 4.75005 29.3023 4.41468 29.7718 3.92838C30.2414 3.45884 29.8054 2.48625 29.1178 2.85517Z" fill="#666666"/>
<path d="M62.3518 61.8497C60.9432 60.2231 47.8129 48.2331 43.9392 54.7396C42.1449 57.7748 45.9851 60.2902 47.9471 62.2689C50.9823 65.3209 54.0344 68.3729 57.0696 71.4249C60.2223 74.5943 63.3915 77.7637 65.7224 81.2685C68.59 85.5614 70.1831 90.3239 70.4179 95.3211C70.4514 95.9919 70.4683 96.6794 70.921 97.2328C71.3906 97.7862 72.4302 98.1383 73.5537 97.9036C75.3983 97.5011 76.0357 96.0254 76.153 94.9019C77.461 82.5597 70.7699 71.643 62.3518 61.8497Z" fill="#333333"/>
<path d="M71.3073 98.0367C71.1564 98.8919 70.5862 99.7304 70.8881 100.552C71.0558 101.022 71.5084 101.391 71.5755 101.877C71.6258 102.212 71.475 102.531 71.5085 102.866C71.5421 103.285 71.8606 103.638 72.2295 103.839C72.5984 104.04 73.0344 104.09 73.4536 104.09C73.8896 104.107 74.3426 104.074 74.6947 103.839C75.0301 103.621 75.2312 103.269 75.3821 102.9C75.7007 102.095 75.7175 101.189 75.5834 100.334C75.4492 99.4788 75.1643 98.6572 74.8792 97.8355C74.7953 97.6175 74.7113 97.3827 74.5269 97.2318C74.376 97.1144 74.1748 97.0808 73.9736 97.0473C73.3699 96.9635 72.7327 96.9802 72.129 97.0641C71.3576 97.1982 71.4247 97.3324 71.3073 98.0367Z" fill="#F0E5D4"/>
<path d="M17.258 6.50883C17.6102 5.73744 17.9959 4.88219 18.6667 4.44619C19.4381 3.92635 20.2934 4.14435 21.0144 4.44619C21.8361 4.79835 22.6241 5.21759 23.362 5.72067C23.6806 5.93867 24.4353 6.42498 24.5527 6.82745C24.7204 7.41437 24.2845 8.03482 23.9658 8.65529C21.9871 12.3277 20.4777 15.4636 18.499 18.7336C18.2306 19.1864 17.8953 19.6894 17.4425 19.8236C17.1574 19.9074 16.8891 19.8236 16.6376 19.7397C15.2961 19.2366 11.1876 17.8113 12.4453 15.3798C14.0048 12.3781 15.8494 9.61113 17.258 6.50883Z" fill="#3D3D3D"/>
<path d="M18.0158 6.00664C18.1835 5.73834 18.3847 5.4533 18.653 5.31915C18.9548 5.16823 19.2735 5.26884 19.5418 5.36946C20.6821 5.80546 21.7721 6.39235 22.8453 6.9625C23.013 7.04635 23.4491 7.28111 23.5329 7.48234C23.6 7.59973 23.7173 7.81774 23.7173 7.96867C23.7173 8.48851 23.2981 8.92452 23.0969 9.44437C22.9124 9.91391 22.5769 10.2996 22.3589 10.7524C22.1242 11.2387 21.8391 11.725 21.5708 12.1945C21.1851 12.8988 20.7994 13.6199 20.4472 14.3577C20.1957 14.8776 19.9107 15.3974 19.6927 15.9341C19.5921 16.1856 19.4411 16.4372 19.2399 16.5881C18.9548 16.8228 18.6697 16.806 18.3846 16.7054C17.8312 16.521 17.3114 16.2359 16.8083 15.9508C16.0537 15.5316 15.2991 15.1124 14.5277 14.6931C14.2594 14.5422 13.6389 14.3242 13.7563 13.8379C13.8066 13.5696 14.075 13.251 14.2091 13.0162C14.3936 12.6976 14.578 12.3622 14.7457 12.0436C15.45 10.7523 16.0873 9.42758 16.7916 8.11958C17.1773 7.39851 17.5798 6.69418 18.0158 6.00664Z" fill="white"/>
<path d="M22.4425 5.98744C22.3754 5.92037 22.2747 5.87005 22.1909 5.81974C21.9897 5.71913 21.7717 5.60174 21.5704 5.50112C21.4531 5.43405 21.2854 5.36695 21.2351 5.43403C21.2016 5.46757 21.2182 5.51789 21.2517 5.55143C21.3691 5.75266 22.3585 6.33959 22.5262 6.18867C22.543 6.13836 22.5096 6.05452 22.4425 5.98744Z" fill="#5E625E"/>
<path d="M21.132 5.31941C21.132 5.2691 21.0818 5.21875 21.0315 5.21875C20.9812 5.21875 20.9307 5.25232 20.8804 5.30263C20.8469 5.33617 20.8301 5.36972 20.8301 5.42002C20.8301 5.50387 20.9141 5.55414 20.9811 5.53737C21.0482 5.5206 21.1152 5.43678 21.132 5.35293V5.31941Z" fill="#5E625E"/>
<path d="M15.3794 16.5216C15.2285 16.5552 15.0944 16.6558 14.9938 16.7899C14.9435 16.857 14.8931 16.9241 14.8596 16.9912C14.7757 17.1756 14.8093 17.3768 14.8932 17.5445C14.977 17.6954 15.1447 17.8128 15.2956 17.8631C15.3459 17.8799 15.3794 17.8967 15.4297 17.8799C15.48 17.8799 15.5303 17.8464 15.5807 17.8128C15.7651 17.6954 15.916 17.4942 15.9663 17.2762C16.0837 16.8905 15.7819 16.421 15.3794 16.5216Z" fill="#EBEFEB"/>
<path d="M44.6254 26.3856C44.4577 25.48 44.2229 24.5745 43.6862 23.8366C43.0825 22.9814 42.1101 22.4448 41.1039 22.143C40.0978 21.8579 39.0413 21.7908 38.0016 21.7572C33.5075 21.6231 28.7953 22.0255 24.9719 24.4068C24.7372 24.5577 24.5024 24.7086 24.3347 24.9266C24.1502 25.1446 24.0496 25.4297 23.949 25.698C23.4795 26.9725 22.9932 28.2637 22.9093 29.622C22.8423 30.6282 22.9764 31.6511 23.1273 32.6573C23.3286 33.9988 23.5465 35.3236 23.8987 36.6316C24.5024 38.9122 25.5084 41.0922 26.7661 43.0877C25.9612 41.2934 26.0787 39.2476 26.2632 37.2856C26.347 36.2794 26.4475 35.29 26.5481 34.2839C26.6487 33.2609 26.7996 32.1374 27.5542 31.4499C28.2418 30.7959 29.2648 30.6785 30.2039 30.6617C31.143 30.6449 32.1322 30.712 32.9875 30.3431L33.2558 29.2699C33.2223 29.8903 33.5576 30.494 34.0439 30.8965C34.5302 31.299 35.1172 31.517 35.7209 31.6847C36.3749 31.8691 37.0457 32.0032 37.7165 31.9529C38.3705 31.9026 39.0078 31.6679 39.6618 31.6008C40.3158 31.5337 41.0536 31.6343 41.4728 32.1374C41.8753 32.6069 41.892 33.2777 41.9088 33.8982C41.9591 35.6422 42.1269 37.3694 42.3952 39.0798C42.4958 38.8954 42.6131 38.711 42.7137 38.5433C43.2 39.0296 42.8646 39.8177 42.6466 40.4549C42.395 41.1592 42.3279 41.9306 42.4285 42.6685C43.1329 40.8406 43.8372 39.0128 44.3235 37.1011C45.1955 33.5963 45.313 29.9239 44.6254 26.3856Z" fill="#736357"/>
<defs>
<linearGradient id="paint0_linear_1_774" x1="1.05119" y1="201.44" x2="67.8" y2="201.44" gradientUnits="userSpaceOnUse">
<stop stop-color="#4D4D4D"/>
<stop offset="1"/>
</linearGradient>
<linearGradient id="paint1_linear_1_774" x1="1.05608" y1="201.44" x2="67.8049" y2="201.44" gradientUnits="userSpaceOnUse">
<stop/>
<stop offset="1"/>
</linearGradient>
</defs>
</svg>
